<?xml version="1.0" encoding="UTF-8" standalone="no"?>
<!DOCTYPE svg PUBLIC "-//W3C//DTD SVG 1.1//EN" "http://www.w3.org/Graphics/SVG/1.1/DTD/svg11.dtd">
<svg width="100%" height="100%" viewBox="0 0 300 300" version="1.1" xmlns="http://www.w3.org/2000/svg" xmlns:xlink="http://www.w3.org/1999/xlink" xml:space="preserve" xmlns:serif="http://www.serif.com/" style="fill-rule:evenodd;clip-rule:evenodd;stroke-linecap:round;stroke-linejoin:round;stroke-miterlimit:1.5;">
    <g transform="matrix(1,0,0,1,0,-342)">
        <g id="Artboard5" transform="matrix(1,0,0,1,-1750,342)">
            <rect x="1750" y="0" width="300" height="300" style="fill:none;"/>
            <g transform="matrix(1,0,0,1,1750,0)">
                <path d="M280,111C280,60.776 239.224,20 189,20L111,20C60.776,20 20,60.776 20,111L20,189C20,239.224 60.776,280 111,280L189,280C239.224,280 280,239.224 280,189L280,111Z" style="fill:none;stroke:black;stroke-width:10px;"/>
            </g>
            <g transform="matrix(1.02703,0,0,1.02703,1729,-352.73)">
                <path d="M259,582L74,582L120.25,397L212.75,397L259,582Z" style="fill:rgb(255,148,109);stroke:black;stroke-width:9.74px;"/>
            </g>
        </g>
    </g>
</svg>
