<?xml version="1.0" encoding="UTF-8" standalone="no"?>
<!DOCTYPE svg PUBLIC "-//W3C//DTD SVG 1.1//EN" "http://www.w3.org/Graphics/SVG/1.1/DTD/svg11.dtd">
<svg width="100%" height="100%" viewBox="0 0 300 300" version="1.1" xmlns="http://www.w3.org/2000/svg" xmlns:xlink="http://www.w3.org/1999/xlink" xml:space="preserve" xmlns:serif="http://www.serif.com/" style="fill-rule:evenodd;clip-rule:evenodd;stroke-linecap:round;stroke-linejoin:round;stroke-miterlimit:1.5;">
    <g transform="matrix(1,0,0,1,-700,0)">
        <rect id="Artboard2" x="700" y="0" width="300" height="300" style="fill:none;"/>
        <g id="Artboard21" serif:id="Artboard2">
            <g transform="matrix(1.15385,0,0,1.15385,676.923,-23.0769)">
                <path d="M280,150C280,78.251 221.749,20 150,20C78.251,20 20,78.251 20,150C20,221.749 78.251,280 150,280C221.749,280 280,221.749 280,150Z" style="fill:none;"/>
            </g>
            <g transform="matrix(0.770095,0,0,0.770095,165.878,8.41146)">
                <path d="M888.361,72.277L908.403,133.958L947.023,114.897L940.83,157.518L1005.69,157.518L953.216,195.639L983.278,226.479L940.83,233.759L960.871,295.44L908.403,257.319L888.361,295.44L868.32,257.319L815.851,295.44L835.893,233.759L793.445,226.479L823.506,195.639L771.038,157.518L835.893,157.518L829.7,114.897L868.32,133.958L888.361,72.277Z" style="fill:rgb(239,255,101);stroke:black;stroke-width:12.99px;"/>
            </g>
        </g>
    </g>
</svg>
