<?xml version="1.0" encoding="UTF-8" standalone="no"?>
<!DOCTYPE svg PUBLIC "-//W3C//DTD SVG 1.1//EN" "http://www.w3.org/Graphics/SVG/1.1/DTD/svg11.dtd">
<svg width="100%" height="100%" viewBox="0 0 300 300" version="1.1" xmlns="http://www.w3.org/2000/svg" xmlns:xlink="http://www.w3.org/1999/xlink" xml:space="preserve" xmlns:serif="http://www.serif.com/" style="fill-rule:evenodd;clip-rule:evenodd;stroke-linecap:round;stroke-linejoin:round;stroke-miterlimit:1.5;">
    <g transform="matrix(1,0,0,1,-350,0)">
        <rect id="Artboard1" x="350" y="0" width="300" height="300" style="fill:none;"/>
        <g id="Artboard11" serif:id="Artboard1">
            <g transform="matrix(1.15385,0,0,1.15385,326.923,-23.0769)">
                <path d="M280,150C280,78.251 221.749,20 150,20C78.251,20 20,78.251 20,150C20,221.749 78.251,280 150,280C221.749,280 280,221.749 280,150Z" style="fill:none;"/>
            </g>
            <g transform="matrix(0.664336,0,0,0.664336,126.643,12.6845)">
                <path d="M596,89.703L664.001,139.108L630.001,185.905L685.014,203.78L659.04,283.72L604.027,265.845L604.027,323.689L519.973,323.689L519.973,265.845L464.96,283.72L438.986,203.78L493.999,185.905L459.999,139.108L528,89.703L562,136.5L596,89.703Z" style="fill:rgb(0,127,98);stroke:black;stroke-width:15.05px;"/>
            </g>
        </g>
    </g>
</svg>
