<?xml version="1.0" encoding="UTF-8" standalone="no"?>
<!DOCTYPE svg PUBLIC "-//W3C//DTD SVG 1.1//EN" "http://www.w3.org/Graphics/SVG/1.1/DTD/svg11.dtd">
<svg width="100%" height="100%" viewBox="0 0 300 300" version="1.1" xmlns="http://www.w3.org/2000/svg" xmlns:xlink="http://www.w3.org/1999/xlink" xml:space="preserve" xmlns:serif="http://www.serif.com/" style="fill-rule:evenodd;clip-rule:evenodd;stroke-linecap:round;stroke-linejoin:round;stroke-miterlimit:1.5;">
    <g transform="matrix(1,0,0,1,-350,-343)">
        <g id="Artboard6" transform="matrix(1,0,0,1,-1750,342)">
            <rect x="2100" y="0" width="300" height="300" style="fill:none;"/>
            <clipPath id="_clip1">
                <rect x="2100" y="0" width="300" height="300"/>
            </clipPath>
            <g clip-path="url(#_clip1)">
                <g transform="matrix(1.15385,0,0,1.15385,2076.92,-23.0769)">
                    <path d="M280,150C280,78.251 221.749,20 150,20C78.251,20 20,78.251 20,150C20,221.749 78.251,280 150,280C221.749,280 280,221.749 280,150Z" style="fill:none;"/>
                </g>
                <g transform="matrix(1.01604,0,0,1.01604,1685.59,-390.027)">
                    <path d="M555.5,438C607.104,438 649,479.896 649,531.5C649,583.104 607.104,625 555.5,625C503.896,625 462,583.104 462,531.5C462,479.896 503.896,438 555.5,438ZM555.5,484.75C581.302,484.75 602.25,505.698 602.25,531.5C602.25,557.302 581.302,578.25 555.5,578.25C529.698,578.25 508.75,557.302 508.75,531.5C508.75,505.698 529.698,484.75 555.5,484.75Z" style="fill:rgb(109,255,228);stroke:black;stroke-width:9.84px;"/>
                </g>
            </g>
        </g>
    </g>
</svg>
