<?xml version="1.0" encoding="UTF-8" standalone="no"?>
<!DOCTYPE svg PUBLIC "-//W3C//DTD SVG 1.1//EN" "http://www.w3.org/Graphics/SVG/1.1/DTD/svg11.dtd">
<svg width="100%" height="100%" viewBox="0 0 300 300" version="1.1" xmlns="http://www.w3.org/2000/svg" xmlns:xlink="http://www.w3.org/1999/xlink" xml:space="preserve" xmlns:serif="http://www.serif.com/" style="fill-rule:evenodd;clip-rule:evenodd;stroke-linecap:round;stroke-linejoin:round;stroke-miterlimit:1.5;">
    <g transform="matrix(1,0,0,1,-700,-342)">
        <g id="Artboard7" transform="matrix(1,0,0,1,-1750,342)">
            <rect x="2450" y="0" width="300" height="300" style="fill:none;"/>
            <g transform="matrix(1,0,0,1,2450,0)">
                <path d="M280,111C280,60.776 239.224,20 189,20L111,20C60.776,20 20,60.776 20,111L20,189C20,239.224 60.776,280 111,280L189,280C239.224,280 280,239.224 280,189L280,111Z" style="fill:none;stroke:black;stroke-width:10px;"/>
            </g>
            <g transform="matrix(1,0,0,1,1752,-349)">
                <path d="M826.445,418.555C826.445,406.659 836.103,397 848,397C859.897,397 869.555,406.659 869.555,418.555C875.503,408.252 888.697,404.717 899,410.665C909.303,416.614 912.838,429.808 906.89,440.11C917.192,434.162 930.386,437.697 936.335,448C942.283,458.303 938.748,471.497 928.445,477.445C940.341,477.445 950,487.103 950,499C950,510.897 940.341,520.555 928.445,520.555C938.748,526.503 942.283,539.697 936.335,550C930.386,560.303 917.192,563.838 906.89,557.89C912.838,568.192 909.303,581.386 899,587.335C888.697,593.283 875.503,589.748 869.555,579.445C869.555,591.341 859.897,601 848,601C836.103,601 826.445,591.341 826.445,579.445C820.497,589.748 807.303,593.283 797,587.335C786.697,581.386 783.162,568.192 789.11,557.89C778.808,563.838 765.614,560.303 759.665,550C753.717,539.697 757.252,526.503 767.555,520.555C755.659,520.555 746,510.897 746,499C746,487.103 755.659,477.445 767.555,477.445C757.252,471.497 753.717,458.303 759.665,448C765.614,437.697 778.808,434.162 789.11,440.11C783.162,429.808 786.697,416.614 797,410.665C807.303,404.717 820.497,408.252 826.445,418.555Z" style="fill:rgb(109,130,228);stroke:black;stroke-width:10px;"/>
            </g>
        </g>
    </g>
</svg>
