<?xml version="1.0" encoding="UTF-8" standalone="no"?>
<!DOCTYPE svg PUBLIC "-//W3C//DTD SVG 1.1//EN" "http://www.w3.org/Graphics/SVG/1.1/DTD/svg11.dtd">
<svg width="100%" height="100%" viewBox="0 0 300 300" version="1.1" xmlns="http://www.w3.org/2000/svg" xmlns:xlink="http://www.w3.org/1999/xlink" xml:space="preserve" xmlns:serif="http://www.serif.com/" style="fill-rule:evenodd;clip-rule:evenodd;stroke-linecap:round;stroke-linejoin:round;stroke-miterlimit:1.5;">
    <g transform="matrix(1,0,0,1,-1050,-342)">
        <g id="Artboard8" transform="matrix(1,0,0,1,-1750,342)">
            <rect x="2800" y="0" width="300" height="300" style="fill:none;"/>
            <clipPath id="_clip1">
                <rect x="2800" y="0" width="300" height="300"/>
            </clipPath>
            <g clip-path="url(#_clip1)">
                <g transform="matrix(1.15385,0,0,1.15385,2776.92,-23.0769)">
                    <path d="M280,150C280,78.251 221.749,20 150,20C78.251,20 20,78.251 20,150C20,221.749 78.251,280 150,280C221.749,280 280,221.749 280,150Z" style="fill:none;"/>
                </g>
                <g transform="matrix(-1,1.22465e-16,-1.22465e-16,-1,4135.32,658.5)">
                    <path d="M1185.32,423L1270.82,594L1099.82,594L1185.32,423Z" style="fill:rgb(255,73,73);stroke:black;stroke-width:10px;"/>
                </g>
            </g>
        </g>
    </g>
</svg>
