<?xml version="1.0" encoding="UTF-8" standalone="no"?>
<!DOCTYPE svg PUBLIC "-//W3C//DTD SVG 1.1//EN" "http://www.w3.org/Graphics/SVG/1.1/DTD/svg11.dtd">
<svg width="100%" height="100%" viewBox="0 0 300 300" version="1.1" xmlns="http://www.w3.org/2000/svg" xmlns:xlink="http://www.w3.org/1999/xlink" xml:space="preserve" xmlns:serif="http://www.serif.com/" style="fill-rule:evenodd;clip-rule:evenodd;stroke-linecap:round;stroke-linejoin:round;stroke-miterlimit:1.5;">
    <g transform="matrix(1,0,0,1,-1400,0)">
        <rect id="Artboard4" x="1400" y="0" width="300" height="300" style="fill:none;"/>
        <g id="Artboard41" serif:id="Artboard4">
            <g transform="matrix(1.15385,0,0,1.15385,1376.92,-23.0769)">
                <path d="M280,150C280,78.251 221.749,20 150,20C78.251,20 20,78.251 20,150C20,221.749 78.251,280 150,280C221.749,280 280,221.749 280,150Z" style="fill:none;"/>
            </g>
            <g transform="matrix(1.07955,0,0,1.07955,-83.4773,-3.94187)">
                <path d="M1546,55C1497.43,55 1458,94.431 1458,143C1458,191.569 1497.43,231 1546,231C1531.43,210.467 1519.6,178.104 1519.6,143C1519.6,107.896 1531.43,75.533 1546,55Z" style="fill:rgb(255,146,236);stroke:black;stroke-width:9.26px;"/>
            </g>
        </g>
    </g>
</svg>
