<?xml version="1.0" encoding="UTF-8" standalone="no"?>
<!DOCTYPE svg PUBLIC "-//W3C//DTD SVG 1.1//EN" "http://www.w3.org/Graphics/SVG/1.1/DTD/svg11.dtd">
<svg width="100%" height="100%" viewBox="0 0 300 300" version="1.1" xmlns="http://www.w3.org/2000/svg" xmlns:xlink="http://www.w3.org/1999/xlink" xml:space="preserve" xmlns:serif="http://www.serif.com/" style="fill-rule:evenodd;clip-rule:evenodd;stroke-linecap:round;stroke-linejoin:round;stroke-miterlimit:1.5;">
    <g transform="matrix(1,0,0,1,0,-342)">
        <g id="Artboard5" transform="matrix(1,0,0,1,-1750,342)">
            <rect x="1750" y="0" width="300" height="300" style="fill:none;"/>
            <g transform="matrix(1.15385,0,0,1.15385,1726.92,-23.0769)">
                <path d="M280,150C280,78.251 221.749,20 150,20C78.251,20 20,78.251 20,150C20,221.749 78.251,280 150,280C221.749,280 280,221.749 280,150Z" style="fill:none;"/>
            </g>
            <g transform="matrix(1.02703,0,0,1.02703,1729,-352.73)">
                <path d="M259,582L74,582L120.25,397L212.75,397L259,582Z" style="fill:rgb(255,148,109);stroke:black;stroke-width:9.74px;"/>
            </g>
        </g>
    </g>
</svg>
