<?xml version="1.0" encoding="UTF-8" standalone="no"?>
<!DOCTYPE svg PUBLIC "-//W3C//DTD SVG 1.1//EN" "http://www.w3.org/Graphics/SVG/1.1/DTD/svg11.dtd">
<svg width="100%" height="100%" viewBox="0 0 300 300" version="1.1" xmlns="http://www.w3.org/2000/svg" xmlns:xlink="http://www.w3.org/1999/xlink" xml:space="preserve" xmlns:serif="http://www.serif.com/" style="fill-rule:evenodd;clip-rule:evenodd;stroke-linecap:round;stroke-linejoin:round;stroke-miterlimit:1.5;">
    <g transform="matrix(1,0,0,1,-1400,-343)">
        <g id="logo_9" transform="matrix(1,0,0,1,-1750,343)">
            <rect x="3150" y="0" width="300" height="300" style="fill:none;"/>
            <g transform="matrix(1,0,0,1,3150,0)">
                <path d="M280,111C280,60.776 239.224,20 189,20L111,20C60.776,20 20,60.776 20,111L20,189C20,239.224 60.776,280 111,280L189,280C239.224,280 280,239.224 280,189L280,111Z" style="fill:none;stroke:black;stroke-width:10px;"/>
            </g>
            <g transform="matrix(1.50174,0,0,-1.50174,953.903,924.899)">
                <path d="M1561.5,540.85L1561.5,587L1490.5,516L1561.5,445L1561.5,491.15L1563,491.15L1563,445L1634,516L1563,587L1563,540.85L1561.5,540.85Z" style="fill:rgb(255,0,131);stroke:black;stroke-width:6.66px;"/>
            </g>
        </g>
    </g>
</svg>
