<?xml version="1.0" encoding="UTF-8" standalone="no"?>
<!DOCTYPE svg PUBLIC "-//W3C//DTD SVG 1.1//EN" "http://www.w3.org/Graphics/SVG/1.1/DTD/svg11.dtd">
<svg width="100%" height="100%" viewBox="0 0 300 300" version="1.1" xmlns="http://www.w3.org/2000/svg" xmlns:xlink="http://www.w3.org/1999/xlink" xml:space="preserve" xmlns:serif="http://www.serif.com/" style="fill-rule:evenodd;clip-rule:evenodd;stroke-linecap:round;stroke-linejoin:round;stroke-miterlimit:1.5;">
    <g id="logo_1" transform="matrix(0.375,0,0,0.5,0,0)">
        <rect x="0" y="0" width="800" height="600" style="fill:none;"/>
        <clipPath id="_clip1">
            <rect x="0" y="0" width="800" height="600"/>
        </clipPath>
        <g clip-path="url(#_clip1)">
            <g transform="matrix(3.07692,0,0,2.30769,-61.5385,-46.1538)">
                <path d="M280,150C280,78.251 221.749,20 150,20C78.251,20 20,78.251 20,150C20,221.749 78.251,280 150,280C221.749,280 280,221.749 280,150Z" style="fill:none;"/>
            </g>
            <g transform="matrix(3.24786,0,0,2.4359,-96.9231,-50.7692)">
                <path d="M160.544,66.366C155.526,65.878 150.474,65.878 145.456,66.366L142.971,78.463C138.162,79.199 133.449,80.462 128.916,82.229L120.716,72.995C116.127,75.081 111.751,77.608 107.65,80.539L111.546,92.257C107.75,95.299 104.299,98.75 101.257,102.546L89.539,98.65C86.608,102.751 84.081,107.127 81.995,111.716L91.229,119.916C89.462,124.449 88.199,129.162 87.463,133.971L75.366,136.456C74.878,141.474 74.878,146.526 75.366,151.544L87.463,154.029C88.199,158.838 89.462,163.551 91.229,168.084L81.995,176.284C84.081,180.873 86.608,185.249 89.539,189.35L101.257,185.454C104.299,189.25 107.75,192.701 111.546,195.743L107.65,207.461C111.751,210.392 116.127,212.919 120.716,215.005L128.916,205.771C133.449,207.538 138.162,208.801 142.971,209.537L145.456,221.634C150.474,222.122 155.526,222.122 160.544,221.634L163.029,209.537C167.838,208.801 172.551,207.538 177.084,205.771L185.284,215.005C189.873,212.919 194.249,210.392 198.35,207.461L194.454,195.743C198.25,192.701 201.701,189.25 204.743,185.454L216.461,189.35C219.392,185.249 221.919,180.873 224.005,176.284L214.771,168.084C216.538,163.551 217.801,158.838 218.537,154.029L230.634,151.544C231.122,146.526 231.122,141.474 230.634,136.456L218.537,133.971C217.801,129.162 216.538,124.449 214.771,119.916L224.005,111.716C221.919,107.127 219.392,102.751 216.461,98.65L204.743,102.546C201.701,98.75 198.25,95.299 194.454,92.257L198.35,80.539C194.249,77.608 189.873,75.081 185.284,72.995L177.084,82.229C172.551,80.462 167.838,79.199 163.029,78.463L160.544,66.366ZM153,128.4C161.61,128.4 168.6,135.39 168.6,144C168.6,152.61 161.61,159.6 153,159.6C144.39,159.6 137.4,152.61 137.4,144C137.4,135.39 144.39,128.4 153,128.4Z" style="fill:rgb(255,12,98);stroke:black;stroke-width:8.21px;"/>
            </g>
        </g>
    </g>
</svg>
