<?xml version="1.0" encoding="UTF-8" standalone="no"?>
<!DOCTYPE svg PUBLIC "-//W3C//DTD SVG 1.1//EN" "http://www.w3.org/Graphics/SVG/1.1/DTD/svg11.dtd">
<svg width="100%" height="100%" viewBox="0 0 300 300" version="1.1" xmlns="http://www.w3.org/2000/svg" xmlns:xlink="http://www.w3.org/1999/xlink" xml:space="preserve" xmlns:serif="http://www.serif.com/" style="fill-rule:evenodd;clip-rule:evenodd;stroke-linecap:round;stroke-linejoin:round;stroke-miterlimit:1.5;">
    <g transform="matrix(1,0,0,1,-1050,0)">
        <rect id="Artboard3" x="1050" y="0" width="300" height="300" style="fill:none;"/>
        <g id="Artboard31" serif:id="Artboard3">
            <g transform="matrix(1,0,0,1,1050,0)">
                <path d="M280,111C280,60.776 239.224,20 189,20L111,20C60.776,20 20,60.776 20,111L20,189C20,239.224 60.776,280 111,280L189,280C239.224,280 280,239.224 280,189L280,111Z" style="fill:none;stroke:black;stroke-width:10px;"/>
            </g>
            <g transform="matrix(1,0,0,1,-17.1807,-8.20542)">
                <path d="M1160.18,72.277C1160.18,72.277 1117,162.957 1117,201.819C1117,225.651 1136.35,245 1160.18,245C1184.01,245 1203.36,225.651 1203.36,201.819C1203.36,162.957 1160.18,72.277 1160.18,72.277Z" style="fill:rgb(89,255,101);stroke:black;stroke-width:10px;"/>
            </g>
            <g transform="matrix(1,0,0,-1,96.8193,309.072)">
                <path d="M1160.18,72.277C1160.18,72.277 1117,162.957 1117,201.819C1117,225.651 1136.35,245 1160.18,245C1184.01,245 1203.36,225.651 1203.36,201.819C1203.36,162.957 1160.18,72.277 1160.18,72.277Z" style="fill:rgb(0,161,255);stroke:black;stroke-width:10px;"/>
            </g>
        </g>
    </g>
</svg>
