<?xml version="1.0" encoding="UTF-8" standalone="no"?>
<!DOCTYPE svg PUBLIC "-//W3C//DTD SVG 1.1//EN" "http://www.w3.org/Graphics/SVG/1.1/DTD/svg11.dtd">
<svg width="100%" height="100%" viewBox="0 0 64 64" version="1.1" xmlns="http://www.w3.org/2000/svg" xmlns:xlink="http://www.w3.org/1999/xlink" xml:space="preserve" xmlns:serif="http://www.serif.com/" style="fill-rule:evenodd;clip-rule:evenodd;stroke-linejoin:round;stroke-miterlimit:2;">
    <g transform="matrix(0.527273,0,0,1.08,-2.27273,-4.8)">
        <path d="M120,15C120,12.24 115.411,10 109.759,10L20.241,10C14.589,10 10,12.24 10,15L10,55C10,57.76 14.589,60 20.241,60L109.759,60C115.411,60 120,57.76 120,55L120,15Z" style="fill:rgb(22,22,22);"/>
    </g>
    <g transform="matrix(0.527273,0,0,1.08,-2.27273,-7.8)">
        <path d="M120,15C120,12.24 115.411,10 109.759,10L20.241,10C14.589,10 10,12.24 10,15L10,55C10,57.76 14.589,60 20.241,60L109.759,60C115.411,60 120,57.76 120,55L120,15Z" style="fill:rgb(68,68,68);"/>
    </g>
    <g transform="matrix(7.17293e-17,1.17143,-0.971429,5.94828e-17,67.5429,-12.7571)">
        <path d="M36.5,16L54,51L19,51L36.5,16Z" style="fill:rgb(238,238,238);"/>
    </g>
</svg>
