<?xml version="1.0" encoding="UTF-8" standalone="no"?><!DOCTYPE svg PUBLIC "-//W3C//DTD SVG 1.1//EN" "http://www.w3.org/Graphics/SVG/1.1/DTD/svg11.dtd"><svg width="100%" height="100%" viewBox="0 0 1110 188" version="1.1" xmlns="http://www.w3.org/2000/svg" xmlns:xlink="http://www.w3.org/1999/xlink" xml:space="preserve" xmlns:serif="http://www.serif.com/" style="fill-rule:evenodd;clip-rule:evenodd;stroke-linejoin:round;stroke-miterlimit:2;"><rect id="GitHub-Logo" serif:id="GitHub Logo" x="0" y="0" width="1109.38" height="187.5" style="fill:none;"/><clipPath id="_clip1"><rect x="0" y="0" width="1109.38" height="187.5"/></clipPath><g clip-path="url(#_clip1)"><g><path d="M226.572,-0l-186.942,186.942c2.363,0.368 4.782,0.558 7.245,0.558l1015.62,-0c25.871,-0 46.875,-21.004 46.875,-46.875l-0,-93.75c-0,-25.871 -21.004,-46.875 -46.875,-46.875l-835.928,-0Zm-207.464,178.383c2.222,1.638 4.593,3.084 7.09,4.314l182.697,-182.697l-11.404,-0l-178.383,178.383Zm-13.359,-15.263c1.272,2.32 2.734,4.519 4.366,6.579l169.699,-169.699l-10.946,-0l-163.119,163.12Zm145.441,-163.12l-104.315,-0c-25.871,-0 -46.875,21.004 -46.875,46.875l-0,93.75c-0,3.283 0.338,6.488 0.983,9.583l150.207,-150.208Z" style="fill:#1b2d5e;"/></g><g><path d="M21.694,93.75l73.437,-73.437l73.438,73.437l-73.438,73.438l-73.437,-73.438Zm54.129,10.122c-0,5.329 4.326,9.655 9.654,9.655l19.309,-0c5.328,-0 9.654,-4.326 9.654,-9.655l-0,-19.308c-0,-5.328 -4.326,-9.654 -9.654,-9.654l-19.309,-0c-5.328,-0 -9.654,4.326 -9.654,9.654l-0,19.308Z" style="fill:url(#_Linear2);"/><path d="M21.694,93.75l73.437,-73.437l73.438,73.437l-73.438,73.438l-73.437,-73.438Zm5.892,0l67.545,-67.545c0,0 67.545,67.545 67.545,67.545c0,-0 -67.545,67.545 -67.545,67.545l-67.545,-67.545Zm44.07,10.122c0,7.628 6.193,13.821 13.821,13.821l19.309,0c7.628,0 13.82,-6.193 13.82,-13.821l0,-19.308c0,-7.628 -6.192,-13.821 -13.82,-13.821c-0,0 -19.309,0 -19.309,0c-7.628,0 -13.821,6.193 -13.821,13.821l0,19.308Zm4.167,0c-0,5.329 4.326,9.655 9.654,9.655l19.309,-0c5.328,-0 9.654,-4.326 9.654,-9.655l-0,-19.308c-0,-5.328 -4.326,-9.654 -9.654,-9.654l-19.309,-0c-5.328,-0 -9.654,4.326 -9.654,9.654l-0,19.308Z" style="fill:#474544;"/></g><g id="Logo"><g><g><path d="M250.774,37.103l-71.206,0l0,31.585l20.042,0l0,77.084l31.431,-0l-0,-77.084l19.733,0l0,-31.585Z" style="fill:url(#_Linear3);fill-rule:nonzero;"/><path d="M311.679,150.397c32.074,-0 57.958,-26.038 57.958,-57.957c-0,-31.92 -25.884,-58.882 -57.958,-58.882c-31.918,-0 -57.802,26.962 -57.802,58.882c-0,31.919 25.884,57.957 57.802,57.957Zm0,-86.025c14.96,-0 27.144,13.108 27.144,28.068c-0,14.959 -12.184,27.143 -27.144,27.143c-14.805,-0 -26.988,-12.184 -26.988,-27.143c-0,-14.96 12.183,-28.068 26.988,-28.068Z" style="fill:url(#_Linear4);fill-rule:nonzero;"/><path d="M413.584,150.397c20.813,-0 37.761,-16.948 37.761,-37.752l0,-75.542l-30.814,0l-0,75.542c-0,3.854 -3.088,6.938 -6.947,6.938c-3.86,-0 -6.947,-3.084 -6.947,-6.938l-0,-75.542l-30.814,0l-0,75.542c-0,20.804 16.947,37.752 37.761,37.752Z" style="fill:url(#_Linear5);fill-rule:nonzero;"/><path d="M531.974,145.772l-18.643,-38.073c9.86,-6.936 16.331,-18.496 16.331,-31.598c-0,-21.117 -17.102,-38.38 -38.228,-38.998l-30.82,0l0,108.669l26.806,-0l0,-28.208l2.47,-0.154l12.04,28.362l30.044,-0Zm-31.893,-69.825c-0,8.169 -6.948,10.944 -11.117,11.098l0,-19.884c4.169,0.154 11.117,2.158 11.117,8.786Z" style="fill:url(#_Linear6);fill-rule:nonzero;"/><path d="M625.399,37.103l-30.814,0l0,43.93l-56.425,-47.013l0,111.752l30.814,-0l0,-44.855l56.425,48.709l0,-112.523Z" style="fill:url(#_Linear7);fill-rule:nonzero;"/><path d="M717.128,37.103c-10.475,-0.925 -41.914,-3.391 -59.643,25.592c-6.937,11.408 -10.946,25.283 -13.258,38.542l-9.559,-0l0,26.96l6.938,-0c-0.308,6.629 -0.154,13.72 -0,17.575l27.442,-0c-0.309,-4.163 -0.155,-17.575 -0.155,-17.575l22.355,-0l-0,17.575l25.88,-0l0,-108.669Zm-45.151,64.134c-0,-0 1.387,-11.254 5.704,-18.346c4.779,-7.863 9.712,-11.1 13.567,-13.104l-0,31.45l-20.813,-0l1.542,-0Z" style="fill:url(#_Linear8);fill-rule:nonzero;"/><path d="M787.746,104.308l-42.858,-71.521l-18.5,112.985l26.362,-0l7.709,-34.065l26.671,44.856l26.67,-44.856l6.167,34.065l28.983,-0l-20.041,-112.985l-41.163,71.521Z" style="fill:url(#_Linear9);fill-rule:nonzero;"/><rect x="858.21" y="37.103" width="30.814" height="108.668" style="fill:url(#_Linear10);fill-rule:nonzero;"/><path d="M996.324,37.103l-30.814,0l-0.308,49.171l-66.909,-61.966l0,121.464l30.815,-0l-0,-45.317l67.216,62.737l0,-126.089Z" style="fill:url(#_Linear11);fill-rule:nonzero;"/><path d="M1076.8,37.103l-71.206,0l0,31.585l20.042,0l0,77.084l31.431,-0l-0,-77.084l19.733,0l0,-31.585Z" style="fill:url(#_Linear12);fill-rule:nonzero;"/></g><g><path d="M252.853,43.838l-62.74,-0l-0,27.83l17.659,-0l-0,67.919l27.694,0l-0,-67.919l17.387,-0l0,-27.83Z" style="fill:#fff;fill-rule:nonzero;"/><path d="M316.027,143.662c28.26,0 51.067,-22.942 51.067,-51.067c-0,-28.125 -22.807,-51.881 -51.067,-51.881c-28.125,-0 -50.931,23.756 -50.931,51.881c-0,28.125 22.806,51.067 50.931,51.067Zm-0,-75.798c13.181,0 23.916,11.551 23.916,24.731c-0,13.181 -10.735,23.916 -23.916,23.916c-13.046,0 -23.781,-10.735 -23.781,-23.916c0,-13.18 10.735,-24.731 23.781,-24.731Z" style="fill:#fff;fill-rule:nonzero;"/><path d="M415.325,143.662c18.339,0 33.272,-14.933 33.272,-33.263l-0,-66.561l-27.151,-0l-0,66.561c-0,3.396 -2.721,6.112 -6.121,6.112c-3.401,0 -6.122,-2.716 -6.122,-6.112l0,-66.561l-27.15,-0l-0,66.561c-0,18.33 14.933,33.263 33.272,33.263Z" style="fill:#fff;fill-rule:nonzero;"/><path d="M529.149,139.587l-16.427,-33.546c8.688,-6.112 14.389,-16.298 14.389,-27.842c0,-18.606 -15.068,-33.817 -33.682,-34.361l-27.156,-0l-0,95.749l23.619,0l-0,-24.854l2.176,-0.136l10.608,24.99l26.473,0Zm-28.102,-61.524c0,7.199 -6.122,9.643 -9.795,9.779l0,-17.52c3.673,0.136 9.795,1.901 9.795,7.741Z" style="fill:#fff;fill-rule:nonzero;"/><path d="M620.976,43.838l-27.151,-0l0,38.707l-49.717,-41.424l0,98.466l27.151,0l-0,-39.522l49.717,42.918l-0,-99.145Z" style="fill:#fff;fill-rule:nonzero;"/><path d="M711.309,43.838c-9.231,-0.815 -36.932,-2.989 -52.553,22.549c-6.113,10.052 -9.645,22.278 -11.682,33.96l-8.422,-0l-0,23.754l6.113,0c-0.272,5.841 -0.136,12.09 -0,15.486l24.179,0c-0.272,-3.668 -0.136,-15.486 -0.136,-15.486l19.697,0l-0,15.486l22.804,0l-0,-95.749Zm-39.784,56.509c-0,-0 1.222,-9.917 5.026,-16.165c4.211,-6.928 8.558,-9.781 11.954,-11.546l-0,27.711l-18.339,-0l1.359,-0Z" style="fill:#fff;fill-rule:nonzero;"/><path d="M783.04,103.053l-37.763,-63.019l-16.301,99.553l23.228,0l6.792,-30.015l23.5,39.524l23.501,-39.524l5.433,30.015l25.538,0l-17.659,-99.553l-36.269,63.019Z" style="fill:#fff;fill-rule:nonzero;"/><rect x="854.635" y="43.838" width="27.151" height="95.749" style="fill:#fff;fill-rule:nonzero;"/><path d="M985.838,43.838l-27.15,-0l-0.272,43.325l-58.954,-54.6l-0,107.024l27.151,0l-0,-39.929l59.225,55.279l0,-111.099Z" style="fill:#fff;fill-rule:nonzero;"/><path d="M1066.26,43.838l-62.741,-0l0,27.83l17.659,-0l0,67.919l27.694,0l0,-67.919l17.388,-0l-0,-27.83Z" style="fill:#fff;fill-rule:nonzero;"/></g></g></g></g><defs><linearGradient id="_Linear2" x1="0" y1="0" x2="1" y2="0" gradientUnits="userSpaceOnUse" gradientTransform="matrix(-146.875,4.97603e-14,-6.34729e-14,-146.875,168.569,93.75)"><stop offset="0" style="stop-color:#24ffa4;stop-opacity:1"/><stop offset="0.45" style="stop-color:#27d9bb;stop-opacity:1"/><stop offset="1" style="stop-color:#2d7af3;stop-opacity:1"/></linearGradient><linearGradient id="_Linear3" x1="0" y1="0" x2="1" y2="0" gradientUnits="userSpaceOnUse" gradientTransform="matrix(897.231,-9.99232e-14,-1.55351e-14,138.885,179.568,93.75)"><stop offset="0" style="stop-color:#24ffa4;stop-opacity:1"/><stop offset="1" style="stop-color:#2c88eb;stop-opacity:1"/></linearGradient><linearGradient id="_Linear4" x1="0" y1="0" x2="1" y2="0" gradientUnits="userSpaceOnUse" gradientTransform="matrix(897.231,-9.99232e-14,-1.55351e-14,138.885,179.568,93.75)"><stop offset="0" style="stop-color:#24ffa4;stop-opacity:1"/><stop offset="1" style="stop-color:#2c88eb;stop-opacity:1"/></linearGradient><linearGradient id="_Linear5" x1="0" y1="0" x2="1" y2="0" gradientUnits="userSpaceOnUse" gradientTransform="matrix(897.231,-9.99232e-14,-1.55351e-14,138.885,179.568,93.75)"><stop offset="0" style="stop-color:#24ffa4;stop-opacity:1"/><stop offset="1" style="stop-color:#2c88eb;stop-opacity:1"/></linearGradient><linearGradient id="_Linear6" x1="0" y1="0" x2="1" y2="0" gradientUnits="userSpaceOnUse" gradientTransform="matrix(897.231,-9.99232e-14,-1.55351e-14,138.885,179.568,93.75)"><stop offset="0" style="stop-color:#24ffa4;stop-opacity:1"/><stop offset="1" style="stop-color:#2c88eb;stop-opacity:1"/></linearGradient><linearGradient id="_Linear7" x1="0" y1="0" x2="1" y2="0" gradientUnits="userSpaceOnUse" gradientTransform="matrix(897.231,-9.99232e-14,-1.55351e-14,138.885,179.568,93.75)"><stop offset="0" style="stop-color:#24ffa4;stop-opacity:1"/><stop offset="1" style="stop-color:#2c88eb;stop-opacity:1"/></linearGradient><linearGradient id="_Linear8" x1="0" y1="0" x2="1" y2="0" gradientUnits="userSpaceOnUse" gradientTransform="matrix(897.231,-9.99232e-14,-1.55351e-14,138.885,179.568,93.75)"><stop offset="0" style="stop-color:#24ffa4;stop-opacity:1"/><stop offset="1" style="stop-color:#2c88eb;stop-opacity:1"/></linearGradient><linearGradient id="_Linear9" x1="0" y1="0" x2="1" y2="0" gradientUnits="userSpaceOnUse" gradientTransform="matrix(897.231,-9.99232e-14,-1.55351e-14,138.885,179.568,93.75)"><stop offset="0" style="stop-color:#24ffa4;stop-opacity:1"/><stop offset="1" style="stop-color:#2c88eb;stop-opacity:1"/></linearGradient><linearGradient id="_Linear10" x1="0" y1="0" x2="1" y2="0" gradientUnits="userSpaceOnUse" gradientTransform="matrix(897.231,-9.99232e-14,-1.55351e-14,138.885,179.568,93.75)"><stop offset="0" style="stop-color:#24ffa4;stop-opacity:1"/><stop offset="1" style="stop-color:#2c88eb;stop-opacity:1"/></linearGradient><linearGradient id="_Linear11" x1="0" y1="0" x2="1" y2="0" gradientUnits="userSpaceOnUse" gradientTransform="matrix(897.231,-9.99232e-14,-1.55351e-14,138.885,179.568,93.75)"><stop offset="0" style="stop-color:#24ffa4;stop-opacity:1"/><stop offset="1" style="stop-color:#2c88eb;stop-opacity:1"/></linearGradient><linearGradient id="_Linear12" x1="0" y1="0" x2="1" y2="0" gradientUnits="userSpaceOnUse" gradientTransform="matrix(897.231,-9.99232e-14,-1.55351e-14,138.885,179.568,93.75)"><stop offset="0" style="stop-color:#24ffa4;stop-opacity:1"/><stop offset="1" style="stop-color:#2c88eb;stop-opacity:1"/></linearGradient></defs></svg>