<?xml version="1.0" encoding="UTF-8" standalone="no"?><!DOCTYPE svg PUBLIC "-//W3C//DTD SVG 1.1//EN" "http://www.w3.org/Graphics/SVG/1.1/DTD/svg11.dtd"><svg width="100%" height="100%" viewBox="0 0 550 188" version="1.1" xmlns="http://www.w3.org/2000/svg" xmlns:xlink="http://www.w3.org/1999/xlink" xml:space="preserve" xmlns:serif="http://www.serif.com/" style="fill-rule:evenodd;clip-rule:evenodd;stroke-linejoin:round;stroke-miterlimit:2;"><rect id="Fifth-Draft-Transparent-Long" serif:id="Fifth Draft Transparent Long" x="-0" y="0" width="550" height="187.5" style="fill:none;"/><g id="Logo"><g><text x="179.559px" y="145.781px" style="font-family:'Geomancy-ExtraBold', 'Geomancy';font-size:154.167px;fill:#24ffa4;">M<tspan x="311.371px 351.455px 458.755px " y="145.781px 145.781px 145.781px ">INT</tspan></text><text x="188.708px" y="137.842px" style="font-family:'Geomancy-ExtraBold', 'Geomancy';font-size:135.839px;fill:#fff;">M<tspan x="314.359px 359.186px 463.238px " y="137.842px 137.842px 137.842px ">INT</tspan></text></g></g><g><path d="M22.01,86.769l80.03,-66.069l66.069,80.031l-80.03,66.069l-66.069,-80.031Zm52.881,15.215c-0.507,5.3 3.385,10.014 8.685,10.52l19.207,1.836c5.3,0.506 10.014,-3.386 10.52,-8.686l1.836,-19.206c0.506,-5.3 -3.386,-10.015 -8.686,-10.521l-19.206,-1.835c-5.3,-0.507 -10.014,3.385 -10.521,8.685l-1.835,19.207Z" style="fill:url(#_Linear1);"/><path d="M22.01,86.769l80.03,-66.069l66.069,80.031l-80.03,66.069l-66.069,-80.031Zm5.866,0.561l73.603,-60.764c0,0 60.764,73.604 60.764,73.604c-0,0 -73.604,60.764 -73.604,60.764l-60.763,-73.604Zm42.867,14.257c-0.725,7.59 4.848,14.34 12.437,15.065c-0,0 19.206,1.836 19.206,1.836c7.59,0.725 14.34,-4.848 15.065,-12.437c0,-0 1.836,-19.207 1.836,-19.207c0.725,-7.589 -4.848,-14.34 -12.437,-15.065c-0,0 -19.207,-1.835 -19.207,-1.835c-7.589,-0.725 -14.339,4.847 -15.065,12.437l-1.835,19.206Zm4.148,0.397c-0.507,5.3 3.385,10.014 8.685,10.52l19.207,1.836c5.3,0.506 10.014,-3.386 10.52,-8.686l1.836,-19.206c0.506,-5.3 -3.386,-10.015 -8.686,-10.521l-19.206,-1.835c-5.3,-0.507 -10.014,3.385 -10.521,8.685l-1.835,19.207Z" style="fill:#fff;"/></g><defs><linearGradient id="_Linear1" x1="0" y1="0" x2="1" y2="0" gradientUnits="userSpaceOnUse" gradientTransform="matrix(-146.099,-13.9612,13.9612,-146.099,168.109,100.731)"><stop offset="0" style="stop-color:#24ffa4;stop-opacity:1"/><stop offset="0.45" style="stop-color:#27d9bb;stop-opacity:1"/><stop offset="1" style="stop-color:#2d7af3;stop-opacity:1"/></linearGradient></defs></svg>