<?xml version="1.0" encoding="UTF-8" standalone="no"?><!DOCTYPE svg PUBLIC "-//W3C//DTD SVG 1.1//EN" "http://www.w3.org/Graphics/SVG/1.1/DTD/svg11.dtd"><svg width="100%" height="100%" viewBox="0 0 550 188" version="1.1" xmlns="http://www.w3.org/2000/svg" xmlns:xlink="http://www.w3.org/1999/xlink" xml:space="preserve" xmlns:serif="http://www.serif.com/" style="fill-rule:evenodd;clip-rule:evenodd;stroke-linejoin:round;stroke-miterlimit:2;"><rect id="Fifth-Draft-Transparent-Long" serif:id="Fifth Draft Transparent Long" x="-0" y="0" width="550" height="187.5" style="fill:none;"/><g id="Logo"><g><path d="M256.182,96.783l-39.594,-73.379l-23.569,112.038l26.336,1.187l9.234,-33.684l24.624,46.013l28.664,-43.611l4.626,34.309l28.954,1.305l-14.933,-113.773l-44.342,69.595Z" style="fill:#24ffa4;fill-rule:nonzero;"/><path d="M360.384,34.207l-30.783,-1.387l-4.894,108.558l30.783,1.387l4.894,-108.558Z" style="fill:#24ffa4;fill-rule:nonzero;"/><path d="M467.575,39.039l-30.783,-1.388l-2.522,49.108l-64.05,-64.917l-5.47,121.341l30.783,1.387l2.04,-45.27l64.324,65.7l5.678,-125.961Z" style="fill:#24ffa4;fill-rule:nonzero;"/><path d="M547.968,42.663l-71.133,-3.207l-1.423,31.553l20.022,0.903l-3.471,77.005l31.398,1.415l3.472,-77.005l19.713,0.889l1.422,-31.553Z" style="fill:#24ffa4;fill-rule:nonzero;"/><path d="M258.171,93.861l-34.887,-64.655l-20.767,98.718l23.204,1.046l8.137,-29.679l21.697,40.542l25.256,-38.426l4.076,30.23l25.512,1.15l-13.158,-100.247l-39.07,61.321Z" style="fill:#fff;fill-rule:nonzero;"/><path d="M359.483,39.153l-27.123,-1.223l-4.312,95.652l27.123,1.223l4.312,-95.652Z" style="fill:#fff;fill-rule:nonzero;"/><path d="M463.43,43.838l-27.123,-1.222l-2.223,43.269l-56.435,-57.199l-4.819,106.915l27.123,1.223l1.798,-39.889l56.676,57.89l5.003,-110.987Z" style="fill:#fff;fill-rule:nonzero;"/><path d="M543.765,47.46l-62.677,-2.826l-1.253,27.802l17.641,0.795l-3.059,67.851l27.666,1.247l3.059,-67.851l17.37,0.783l1.253,-27.801Z" style="fill:#fff;fill-rule:nonzero;"/></g></g><g><path d="M22.01,86.769l80.03,-66.069l66.069,80.031l-80.03,66.069l-66.069,-80.031Zm52.881,15.215c-0.507,5.3 3.385,10.014 8.685,10.52l19.207,1.836c5.3,0.506 10.014,-3.386 10.52,-8.686l1.836,-19.206c0.506,-5.3 -3.386,-10.015 -8.686,-10.521l-19.206,-1.835c-5.3,-0.507 -10.014,3.385 -10.521,8.685l-1.835,19.207Z" style="fill:url(#_Linear1);"/><path d="M22.01,86.769l80.03,-66.069l66.069,80.031l-80.03,66.069l-66.069,-80.031Zm5.866,0.561l73.603,-60.764c0,0 60.764,73.604 60.764,73.604c-0,0 -73.604,60.764 -73.604,60.764l-60.763,-73.604Zm42.867,14.257c-0.725,7.59 4.848,14.34 12.437,15.065c-0,0 19.206,1.836 19.206,1.836c7.59,0.725 14.34,-4.848 15.065,-12.437c0,-0 1.836,-19.207 1.836,-19.207c0.725,-7.589 -4.848,-14.34 -12.437,-15.065c-0,0 -19.207,-1.835 -19.207,-1.835c-7.589,-0.725 -14.339,4.847 -15.065,12.437l-1.835,19.206Zm4.148,0.397c-0.507,5.3 3.385,10.014 8.685,10.52l19.207,1.836c5.3,0.506 10.014,-3.386 10.52,-8.686l1.836,-19.206c0.506,-5.3 -3.386,-10.015 -8.686,-10.521l-19.206,-1.835c-5.3,-0.507 -10.014,3.385 -10.521,8.685l-1.835,19.207Z" style="fill:#fff;"/></g><defs><linearGradient id="_Linear1" x1="0" y1="0" x2="1" y2="0" gradientUnits="userSpaceOnUse" gradientTransform="matrix(-146.099,-13.9612,13.9612,-146.099,168.109,100.731)"><stop offset="0" style="stop-color:#24ffa4;stop-opacity:1"/><stop offset="0.45" style="stop-color:#27d9bb;stop-opacity:1"/><stop offset="1" style="stop-color:#2d7af3;stop-opacity:1"/></linearGradient></defs></svg>