<?xml version="1.0" encoding="UTF-8" standalone="no"?><!DOCTYPE svg PUBLIC "-//W3C//DTD SVG 1.1//EN" "http://www.w3.org/Graphics/SVG/1.1/DTD/svg11.dtd"><svg width="100%" height="100%" viewBox="0 0 550 188" version="1.1" xmlns="http://www.w3.org/2000/svg" xmlns:xlink="http://www.w3.org/1999/xlink" xml:space="preserve" xmlns:serif="http://www.serif.com/" style="fill-rule:evenodd;clip-rule:evenodd;stroke-linejoin:round;stroke-miterlimit:2;"><rect id="Fifth-Draft-Transparent-Long" serif:id="Fifth Draft Transparent Long" x="-0" y="0" width="550" height="187.5" style="fill:none;"/><g><path d="M22.027,86.764l80.09,-66.118l66.119,80.09l-80.09,66.118l-66.119,-80.09Zm52.921,15.226c-0.507,5.304 3.388,10.022 8.692,10.529l19.221,1.836c5.304,0.507 10.021,-3.388 10.528,-8.692l1.837,-19.221c0.507,-5.304 -3.388,-10.022 -8.692,-10.528l-19.221,-1.837c-5.304,-0.507 -10.022,3.388 -10.529,8.692l-1.836,19.221Z" style="fill:url(#_Linear1);"/><path d="M22.027,86.764l80.09,-66.118l66.119,80.09l-80.09,66.118l-66.119,-80.09Zm5.866,0.561l73.664,-60.814c-0,0 60.813,73.664 60.813,73.664c0,0 -73.664,60.814 -73.664,60.814l-60.813,-73.664Zm42.907,14.269c-0.726,7.593 4.85,14.347 12.443,15.072c0,0 19.221,1.837 19.221,1.837c7.594,0.726 14.347,-4.85 15.073,-12.443c0,-0 1.837,-19.221 1.837,-19.221c0.725,-7.594 -4.85,-14.348 -12.444,-15.073c0,-0 -19.22,-1.837 -19.22,-1.837c-7.594,-0.726 -14.348,4.85 -15.073,12.444l-1.837,19.221Zm4.148,0.396c-0.507,5.304 3.388,10.022 8.692,10.529l19.221,1.836c5.304,0.507 10.021,-3.388 10.528,-8.692l1.837,-19.221c0.507,-5.304 -3.388,-10.022 -8.692,-10.528l-19.221,-1.837c-5.304,-0.507 -10.022,3.388 -10.529,8.692l-1.836,19.221Z" style="fill:#474544;"/></g><g id="Logo"><g><text x="179.559px" y="145.781px" style="font-family:'Geomancy-ExtraBold', 'Geomancy';font-size:154.167px;fill:#24ffa4;">M<tspan x="311.371px 351.455px 458.755px " y="145.781px 145.781px 145.781px ">INT</tspan></text><text x="188.708px" y="137.842px" style="font-family:'Geomancy-ExtraBold', 'Geomancy';font-size:135.839px;fill:#3b3b3b;">M<tspan x="314.359px 359.186px 463.238px " y="137.842px 137.842px 137.842px ">INT</tspan></text></g></g><defs><linearGradient id="_Linear1" x1="0" y1="0" x2="1" y2="0" gradientUnits="userSpaceOnUse" gradientTransform="matrix(-146.209,-13.9717,13.9717,-146.209,168.236,100.736)"><stop offset="0" style="stop-color:#24ffa4;stop-opacity:1"/><stop offset="0.45" style="stop-color:#27d9bb;stop-opacity:1"/><stop offset="1" style="stop-color:#2d7af3;stop-opacity:1"/></linearGradient></defs></svg>