<?xml version="1.0" encoding="UTF-8" standalone="no"?><!DOCTYPE svg PUBLIC "-//W3C//DTD SVG 1.1//EN" "http://www.w3.org/Graphics/SVG/1.1/DTD/svg11.dtd"><svg width="100%" height="100%" viewBox="0 0 550 188" version="1.1" xmlns="http://www.w3.org/2000/svg" xmlns:xlink="http://www.w3.org/1999/xlink" xml:space="preserve" xmlns:serif="http://www.serif.com/" style="fill-rule:evenodd;clip-rule:evenodd;stroke-linejoin:round;stroke-miterlimit:2;"><rect id="Fifth-Draft-Transparent-Long" serif:id="Fifth Draft Transparent Long" x="-0" y="0" width="550" height="187.5" style="fill:none;"/><g id="Logo"><g><path d="M256.182,96.783l-39.594,-73.379l-23.569,112.038l26.336,1.187l9.234,-33.684l24.624,46.013l28.664,-43.611l4.626,34.309l28.954,1.305l-14.933,-113.773l-44.342,69.595Z" style="fill:#24ffa4;fill-rule:nonzero;"/><path d="M360.384,34.207l-30.783,-1.387l-4.894,108.558l30.783,1.387l4.894,-108.558Z" style="fill:#24ffa4;fill-rule:nonzero;"/><path d="M467.575,39.039l-30.783,-1.388l-2.522,49.108l-64.05,-64.917l-5.47,121.341l30.783,1.387l2.04,-45.27l64.324,65.7l5.678,-125.961Z" style="fill:#24ffa4;fill-rule:nonzero;"/><path d="M547.968,42.663l-71.133,-3.207l-1.423,31.553l20.022,0.903l-3.471,77.005l31.398,1.415l3.472,-77.005l19.713,0.889l1.422,-31.553Z" style="fill:#24ffa4;fill-rule:nonzero;"/><path d="M258.171,93.861l-34.887,-64.655l-20.767,98.718l23.204,1.046l8.137,-29.679l21.697,40.542l25.256,-38.426l4.076,30.23l25.512,1.15l-13.158,-100.247l-39.07,61.321Z" style="fill:#474544;fill-rule:nonzero;"/><path d="M359.483,39.153l-27.123,-1.223l-4.312,95.652l27.123,1.223l4.312,-95.652Z" style="fill:#474544;fill-rule:nonzero;"/><path d="M463.43,43.838l-27.123,-1.222l-2.223,43.269l-56.435,-57.199l-4.819,106.915l27.123,1.223l1.798,-39.889l56.676,57.89l5.003,-110.987Z" style="fill:#474544;fill-rule:nonzero;"/><path d="M543.765,47.46l-62.677,-2.826l-1.253,27.802l17.641,0.795l-3.059,67.851l27.666,1.247l3.059,-67.851l17.37,0.783l1.253,-27.801Z" style="fill:#474544;fill-rule:nonzero;"/></g></g><g><path d="M22.027,86.764l80.09,-66.118l66.119,80.09l-80.09,66.118l-66.119,-80.09Zm52.921,15.226c-0.507,5.304 3.388,10.022 8.692,10.529l19.221,1.836c5.304,0.507 10.021,-3.388 10.528,-8.692l1.837,-19.221c0.507,-5.304 -3.388,-10.022 -8.692,-10.528l-19.221,-1.837c-5.304,-0.507 -10.022,3.388 -10.529,8.692l-1.836,19.221Z" style="fill:url(#_Linear1);"/><path d="M22.027,86.764l80.09,-66.118l66.119,80.09l-80.09,66.118l-66.119,-80.09Zm5.866,0.561l73.664,-60.814c-0,0 60.813,73.664 60.813,73.664c0,0 -73.664,60.814 -73.664,60.814l-60.813,-73.664Zm42.907,14.269c-0.726,7.593 4.85,14.347 12.443,15.072c0,0 19.221,1.837 19.221,1.837c7.594,0.726 14.347,-4.85 15.073,-12.443c0,-0 1.837,-19.221 1.837,-19.221c0.725,-7.594 -4.85,-14.348 -12.444,-15.073c0,-0 -19.22,-1.837 -19.22,-1.837c-7.594,-0.726 -14.348,4.85 -15.073,12.444l-1.837,19.221Zm4.148,0.396c-0.507,5.304 3.388,10.022 8.692,10.529l19.221,1.836c5.304,0.507 10.021,-3.388 10.528,-8.692l1.837,-19.221c0.507,-5.304 -3.388,-10.022 -8.692,-10.528l-19.221,-1.837c-5.304,-0.507 -10.022,3.388 -10.529,8.692l-1.836,19.221Z" style="fill:#474544;"/></g><defs><linearGradient id="_Linear1" x1="0" y1="0" x2="1" y2="0" gradientUnits="userSpaceOnUse" gradientTransform="matrix(-146.209,-13.9717,13.9717,-146.209,168.236,100.736)"><stop offset="0" style="stop-color:#24ffa4;stop-opacity:1"/><stop offset="0.45" style="stop-color:#27d9bb;stop-opacity:1"/><stop offset="1" style="stop-color:#2d7af3;stop-opacity:1"/></linearGradient></defs></svg>